{"title":"Baader Meinhof Komplex - [DivX][SUBs.Eng+Gr]Omifast Greek","uid":5062300,"size":1528540708,"categoryP":"video","categoryS":"movies","magnet":"?xt=urn:btih:cc0ac5ca76d3084527471ef8249d47823b039bd1&amp;dn=Baader+Meinhof+Komplex+-+%5BDivX%5D%5BSUBs.Eng%2BGr%5DOmifast+Greek&amp;tr=udp%3A%2F%2Ftracker.openbittorrent.com%3A80&amp;tr=udp%3A%2F%2Fopen.demonii.com%3A1337&amp;tr=udp%3A%2F%2Ftracker.coppersurfer.tk%3A6969&amp;tr=udp%3A%2F%2Fexodus.desync.com%3A6969","seeders":0,"leechers":1,"uploader":"OmifastGR","files":-1,"time":1250763734,"description":"Optional English and Greek Subtitles\n\nUse DivX7 player to turn on the subtitles on PC.\nUse TV control for your television.\n\nMovie Trailer, Sample, Snapsots, English and Greek Info.txt Included\n\n---------------------------------------------------------------------\n\nDer Baader Meinhof Komplex (2008) &lt;a href=&quot;\nhttp://www.imdb.com/title/tt0765432/&quot; rel=&quot;nofollow&quot; target=&quot;_NEW&quot;&gt;\nhttp://www.imdb.com/title/tt0765432/&lt;/a&gt;\n\nPlot: Set in Germany, chronicles the rise and fall of the Red Army Faction, postwar Western Germany's most active left-wing terrorism organization, also known as the Baader-Meinhof Group.\n\nStarring: Martina Gedeck, Moritz Bleibtreu, Alexandra Maria Lara, Bruno Ganz\n\n----------------------------------------------------------------------\n\nGeneral\n\nFormat                           : DivX\nFormat/Info                      : Hack of AVI\nFile size                        : 700 MiB\nDuration                         : 1h 1mn\nOverall bit rate                 : 1 587 Kbps\n\nVideo\nID                               : 0\nFormat                           : MPEG-4 Visual\nFormat profile                   : AdvancedSimple@L5\nFormat settings, BVOP            : Yes\nFormat settings, QPel            : No\nFormat settings, GMC             : No warppoints\nFormat settings, Matrix          : Default (MPEG)\nCodec ID                         : XVID\nCodec ID/Hint                    : XviD\nDuration                         : 1h 1mn\nBit rate                         : 1 123 Kbps\nWidth                            : 608 pixels\nHeight                           : 320 pixels\nDisplay aspect ratio             : 1.900\nFrame rate                       : 25.000 fps\nResolution                       : 24 bits\nColorimetry                      : 4:2:0\nScan type                        : Progressive\nBits/(Pixel*Frame)               : 0.231\nStream size                      : 496 MiB (71%)\nTitle                            : Video\nWriting library                  : XviD 1.2.1 (UTC 2008-12-04)\n\nAudio\nID                               : 1\nFormat                           : AC-3\nFormat/Info                      : Audio Coding 3\nCodec ID                         : 2000\nDuration                         : 1h 1mn\nBit rate mode                    : Constant\nBit rate                         : 448 Kbps\nChannel(s)                       : 6 channels\nChannel positions                : Front: L C R, Surround: L R, LFE\nSampling rate                    : 48.0 KHz\nStream size                      : 198 MiB (28%)\nAlignment                        : Split accross interleaves\nInterleave, duration             : 40 ms (1.00 video frame)\nInterleave, preload duration     : 500 ms\nTitle                            : Audio\n\nText #1\nFormat                           : DivX Subtitle\nCodec ID                         : DXSB\nCodec ID/Info                    : Subtitle in AVI from DivX networks\nWidth                            : 720 pixels\nHeight                           : 576 pixels\nResolution                       : 4 bits\nStream size                      : 1.32 MiB (0%)\nTitle                            : Subtitle - el;02\n\nText #2\nFormat                           : DivX Subtitle\nCodec ID                         : DXSB\nCodec ID/Info                    : Subtitle in AVI from DivX networks\nWidth                            : 720 pixels\nHeight                           : 576 pixels\nResolution                       : 4 bits\nStream size                      : 1.20 MiB (0%)\nTitle                            : Subtitle - en;02\n\n--------------------------------------------------------------------------\n  &lt;a href=&quot;\nhttp://thepiratebay.se/user/OmifastGR&quot; rel=&quot;nofollow&quot; target=&quot;_NEW&quot;&gt;\nhttp://thepiratebay.se/user/OmifastGR&lt;/a&gt;\n\n!","torrent":{"xt":"urn:btih:cc0ac5ca76d3084527471ef8249d47823b039bd1","amp;dn":"Baader+Meinhof+Komplex+-+%5BDivX%5D%5BSUBs.Eng%2BGr%5DOmifast+Greek","amp;tr":["udp%3A%2F%2Ftracker.openbittorrent.com%3A80","udp%3A%2F%2Fopen.demonii.com%3A1337","udp%3A%2F%2Ftracker.coppersurfer.tk%3A6969","udp%3A%2F%2Fexodus.desync.com%3A6969"],"infoHash":"cc0ac5ca76d3084527471ef8249d47823b039bd1","infoHashBuffer":{"type":"Buffer","data":[204,10,197,202,118,211,8,69,39,71,30,248,36,157,71,130,59,3,155,209]},"announce":[],"urlList":[]}}